<svg xmlns="http://www.w3.org/2000/svg" xmlns:xlink="http://www.w3.org/1999/xlink" width="500" zoomAndPan="magnify" viewBox="0 0 375 374.999991" height="500" preserveAspectRatio="xMidYMid meet" version="1.0"><path fill="#0d6ac3" d="M 109.375 281.25 C 92.1875 281.25 78.28125 295.3125 78.28125 312.5 C 78.28125 329.6875 92.1875 343.75 109.375 343.75 C 126.5625 343.75 140.625 329.6875 140.625 312.5 C 140.625 295.3125 126.5625 281.25 109.375 281.25 Z M 15.625 31.25 L 15.625 62.5 L 46.875 62.5 L 103.125 181.09375 L 82.03125 219.375 C 79.53125 223.75 78.125 228.90625 78.125 234.375 C 78.125 251.5625 92.1875 265.625 109.375 265.625 L 296.875 265.625 L 296.875 234.375 L 115.9375 234.375 C 113.75 234.375 112.03125 232.65625 112.03125 230.46875 L 112.5 228.59375 L 126.5625 203.125 L 242.96875 203.125 C 254.6875 203.125 265 196.71875 270.3125 187.03125 L 326.25 85.625 C 327.5 83.4375 328.125 80.78125 328.125 78.125 C 328.125 69.53125 321.09375 62.5 312.5 62.5 L 81.40625 62.5 L 66.71875 31.25 Z M 265.625 281.25 C 248.4375 281.25 234.53125 295.3125 234.53125 312.5 C 234.53125 329.6875 248.4375 343.75 265.625 343.75 C 282.8125 343.75 296.875 329.6875 296.875 312.5 C 296.875 295.3125 282.8125 281.25 265.625 281.25 Z M 265.625 281.25 " fill-opacity="1" fill-rule="nonzero"/></svg>